<?xml version="1.0" encoding="UTF-8" standalone="no"?>
<svg
   xmlns:dc="http://purl.org/dc/elements/1.1/"
   xmlns:cc="http://creativecommons.org/ns#"
   xmlns:rdf="http://www.w3.org/1999/02/22-rdf-syntax-ns#"
   xmlns:svg="http://www.w3.org/2000/svg"
   xmlns="http://www.w3.org/2000/svg"
   version="1.1"
   width="480"
   height="100"
   viewBox="0 0 480 100"
   preserveAspectRatio="none"
   id="svg2">
  <metadata
     id="metadata12">
    <rdf:RDF>
      <cc:Work
         rdf:about="">
        <dc:format>image/svg+xml</dc:format>
        <dc:type
           rdf:resource="http://purl.org/dc/dcmitype/StillImage" />
        <dc:title></dc:title>
      </cc:Work>
    </rdf:RDF>
  </metadata>
  <defs
     id="defs10" />
  <g
     id="layer2"
     style="display:none"
     transform="translate(0,-50)">
    <g
       transform="translate(-0.60294747,1.5082717)"
       id="g4214">
      <text
         id="text3340"
         y="137.04698"
         x="378.46982"
         style="font-style:normal;font-weight:normal;font-size:40px;line-height:125%;font-family:sans-serif;letter-spacing:0px;word-spacing:0px;fill:#000000;fill-opacity:1;stroke:none;stroke-width:1px;stroke-linecap:butt;stroke-linejoin:miter;stroke-opacity:1"
         xml:space="preserve"><tspan
           style="font-style:normal;font-variant:normal;font-weight:bold;font-stretch:normal;font-size:57.5px;font-family:'Etelka Light Pro';-inkscape-font-specification:'Etelka Light Pro Bold'"
           y="137.04698"
           x="378.46982"
           id="tspan3342">2.0</tspan></text>
      <text
         id="text3390"
         y="86.660583"
         x="4.783361"
         style="font-style:normal;font-weight:normal;font-size:40px;line-height:125%;font-family:sans-serif;letter-spacing:0px;word-spacing:0px;fill:#000000;fill-opacity:1;stroke:none;stroke-width:1px;stroke-linecap:butt;stroke-linejoin:miter;stroke-opacity:1"
         xml:space="preserve"><tspan
           style="font-style:normal;font-variant:normal;font-weight:bold;font-stretch:normal;font-size:75px;font-family:'Etelka Light Pro';-inkscape-font-specification:'Etelka Light Pro Bold'"
           y="86.660583"
           x="4.783361"
           id="tspan3392">GALICASTER</tspan></text>
      <ellipse
         style="fill:#ff2e2e;fill-opacity:1"
         ry="12.885906"
         rx="13.28859"
         cy="14.840357"
         cx="161.7056"
         id="path3412" />
    </g>
  </g>
  <path
     id="path4302"
     style="font-style:normal;font-variant:normal;font-weight:bold;font-stretch:normal;font-size:75px;line-height:125%;font-family:'Etelka Light Pro';-inkscape-font-specification:'Etelka Light Pro Bold';letter-spacing:0px;word-spacing:0px;fill:#000000;fill-opacity:1;stroke:none;stroke-width:1px;stroke-linecap:butt;stroke-linejoin:miter;stroke-opacity:1"
     d="m 45.711269,80.899372 c -1.575,0.375 -4.275,0.75 -6.75,0.75 -11.4,0 -15.675,-2.55 -15.675,-18.6 0,-16.05 4.275,-18 16.125,-18 3.525,0 10.2,0.6 12.975,1.575 l 2.025,-8.625 c -4.05,-1.125 -11.025,-1.95 -15.75,-1.95 -17.025,0 -25.95,5.55 -25.95,26.925 0,21.3 7.95,27.675 24.525,27.675 6.075,0 14.325,-0.9 18.6,-2.25 l 0,-29.325 -21.525,0 0,8.325 11.4,0 0,13.5 z" />
  <path
     id="path4304"
     style="font-style:normal;font-variant:normal;font-weight:bold;font-stretch:normal;font-size:75px;line-height:125%;font-family:'Etelka Light Pro';-inkscape-font-specification:'Etelka Light Pro Bold';letter-spacing:0px;word-spacing:0px;fill:#000000;fill-opacity:1;stroke:none;stroke-width:1px;stroke-linecap:butt;stroke-linejoin:miter;stroke-opacity:1"
     d="m 102.80268,89.599372 10.95,0 c -5.85,-13.95 -13.5,-35.475 -18.825005,-52.275 l -15.525,0 c -6.375,15.6 -14.025,36.675 -18.9,52.275 l 10.35,0 c 1.2,-3.975 2.55,-8.4 4.05,-13.05 l 22.875,0 c 1.725,4.8 3.525005,9.3 5.025005,13.05 z m -15.150005,-43.875 c 2.025,6.75 4.575,14.625 7.275,22.35 l -17.4,0 c 2.7,-7.875 5.475,-15.6 8.1,-22.35 l 2.025,0 z" />
  <path
     id="path4306"
     style="font-style:normal;font-variant:normal;font-weight:bold;font-stretch:normal;font-size:75px;line-height:125%;font-family:'Etelka Light Pro';-inkscape-font-specification:'Etelka Light Pro Bold';letter-spacing:0px;word-spacing:0px;fill:#000000;fill-opacity:1;stroke:none;stroke-width:1px;stroke-linecap:butt;stroke-linejoin:miter;stroke-opacity:1"
     d="m 118.90072,37.324372 0,52.275 34.575,0 0,-8.625 -24.675,0 0,-43.65 -9.9,0 z" />
  <path
     id="path4308"
     style="font-style:normal;font-variant:normal;font-weight:bold;font-stretch:normal;font-size:75px;line-height:125%;font-family:'Etelka Light Pro';-inkscape-font-specification:'Etelka Light Pro Bold';letter-spacing:0px;word-spacing:0px;fill:#000000;fill-opacity:1;stroke:none;stroke-width:1px;stroke-linecap:butt;stroke-linejoin:miter;stroke-opacity:1"
     d="m 160.20932,37.324372 0,52.275 9.9,0 0,-52.275 -9.9,0 z" />
  <path
     id="path4310"
     style="font-style:normal;font-variant:normal;font-weight:bold;font-stretch:normal;font-size:75px;line-height:125%;font-family:'Etelka Light Pro';-inkscape-font-specification:'Etelka Light Pro Bold';letter-spacing:0px;word-spacing:0px;fill:#000000;fill-opacity:1;stroke:none;stroke-width:1px;stroke-linecap:butt;stroke-linejoin:miter;stroke-opacity:1"
     d="m 180.72885,62.974372 c 0,21.3 7.95,27.675 24.525,27.675 4.8,0 10.95,-0.75 15,-1.875 l -2.175,-8.85 c -2.7,0.975 -7.575,1.65 -11.1,1.65 -11.4,0 -15.675,-2.475 -15.675,-18.525 0,-16.05 4.275,-18 15.675,-18 3.525,0 8.4,0.675 11.1,1.65 l 2.175,-8.7 c -4.05,-1.125 -10.2,-1.95 -15,-1.95 -16.575,0 -24.525,5.55 -24.525,26.925 z" />
  <path
     id="path4312"
     style="font-style:normal;font-variant:normal;font-weight:bold;font-stretch:normal;font-size:75px;line-height:125%;font-family:'Etelka Light Pro';-inkscape-font-specification:'Etelka Light Pro Bold';letter-spacing:0px;word-spacing:0px;fill:#000000;fill-opacity:1;stroke:none;stroke-width:1px;stroke-linecap:butt;stroke-linejoin:miter;stroke-opacity:1"
     d="m 262.76361,89.599372 10.95,0 c -5.85,-13.95 -13.5,-35.475 -18.825,-52.275 l -15.525,0 c -6.375,15.6 -14.025,36.675 -18.9,52.275 l 10.35,0 c 1.2,-3.975 2.55,-8.4 4.05,-13.05 l 22.875,0 c 1.725,4.8 3.525,9.3 5.025,13.05 z m -15.15,-43.875 c 2.025,6.75 4.575,14.625 7.275,22.35 l -17.4,0 c 2.7,-7.875 5.475,-15.6 8.1,-22.35 l 2.025,0 z" />
  <path
     id="path4314"
     style="font-style:normal;font-variant:normal;font-weight:bold;font-stretch:normal;font-size:75px;line-height:125%;font-family:'Etelka Light Pro';-inkscape-font-specification:'Etelka Light Pro Bold';letter-spacing:0px;word-spacing:0px;fill:#000000;fill-opacity:1;stroke:none;stroke-width:1px;stroke-linecap:butt;stroke-linejoin:miter;stroke-opacity:1"
     d="m 314.18666,38.374372 c -4.125,-1.35 -10.275,-2.325 -15.975,-2.325 -14.625,0 -22.275,4.725 -22.275,17.025 0,9.675 5.4,13.275 16.95,14.4 10.05,0.9 11.925,3.375 11.925,7.275 0,5.4 -3.75,6.9 -12.075,6.9 -5.1,0 -10.65,-0.825 -13.95,-1.875 l -2.175,8.55 c 4.2,1.425 10.5,2.325 16.275,2.325 15.075,0 22.575,-4.125 22.575,-16.425 0,-9.9 -5.4,-14.4 -17.55,-15.675 -9.525,-0.9 -11.475,-2.7 -11.475,-6.675 0,-5.1 3.45,-6.825 11.775,-6.825 5.25,0 10.875,0.825 13.8,1.875 l 2.175,-8.55 z" />
  <path
     id="path4316"
     style="font-style:normal;font-variant:normal;font-weight:bold;font-stretch:normal;font-size:75px;line-height:125%;font-family:'Etelka Light Pro';-inkscape-font-specification:'Etelka Light Pro Bold';letter-spacing:0px;word-spacing:0px;fill:#000000;fill-opacity:1;stroke:none;stroke-width:1px;stroke-linecap:butt;stroke-linejoin:miter;stroke-opacity:1"
     d="m 346.66869,89.599372 0,-43.725 17.625,0 0,-8.55 -45.225,0 0,8.55 17.625,0 0,43.725 9.975,0 z" />
  <path
     id="path4318"
     style="font-style:normal;font-variant:normal;font-weight:bold;font-stretch:normal;font-size:75px;line-height:125%;font-family:'Etelka Light Pro';-inkscape-font-specification:'Etelka Light Pro Bold';letter-spacing:0px;word-spacing:0px;fill:#000000;fill-opacity:1;stroke:none;stroke-width:1px;stroke-linecap:butt;stroke-linejoin:miter;stroke-opacity:1"
     d="m 371.14682,37.324372 0,52.275 37.95,0 0,-8.55 -28.05,0 0,-14.625 20.025,0 0,-8.475 -20.025,0 0,-12.075 28.05,0 0,-8.55 -37.95,0 z" />
  <path
     id="path4320"
     style="font-style:normal;font-variant:normal;font-weight:bold;font-stretch:normal;font-size:75px;line-height:125%;font-family:'Etelka Light Pro';-inkscape-font-specification:'Etelka Light Pro Bold';letter-spacing:0px;word-spacing:0px;fill:#000000;fill-opacity:1;stroke:none;stroke-width:1px;stroke-linecap:butt;stroke-linejoin:miter;stroke-opacity:1"
     d="m 427.48236,45.724372 15,0 c 3.675,0 5.85,2.625 5.85,8.1 0,5.1 -2.25,7.65 -6.075,7.65 l -14.775,0 0,-15.75 z m 18.15,21.15 c 10.425,-0.375 13.725,-6.825 13.725,-14.325 0,-8.4 -3.525,-15.225 -14.55,-15.225 l -27.225,0 0,52.275 9.9,0 0,-19.95 6.975,0 c 3.375,0 8.25,5.625 16.425,19.95 l 12.225,0 c -9.15,-15.3 -13.875,-21.45 -17.475,-22.725 z" />
  <path
     style="fill:#ff2e2e;fill-opacity:1"
     d="M 178.9471,17.779146 A 13.28859,12.885906 0 0 1 165.65851,30.665052 13.28859,12.885906 0 0 1 152.36992,17.779146 13.28859,12.885906 0 0 1 165.65851,4.89324 13.28859,12.885906 0 0 1 178.9471,17.779146 Z"
     id="ellipse4292" />
</svg>
