<?xml version="1.0" encoding="UTF-8" standalone="no"?>
<!-- Created with Inkscape (http://www.inkscape.org/) -->

<svg
   xmlns:dc="http://purl.org/dc/elements/1.1/"
   xmlns:cc="http://creativecommons.org/ns#"
   xmlns:rdf="http://www.w3.org/1999/02/22-rdf-syntax-ns#"
   xmlns:svg="http://www.w3.org/2000/svg"
   xmlns="http://www.w3.org/2000/svg"
   xmlns:sodipodi="http://sodipodi.sourceforge.net/DTD/sodipodi-0.dtd"
   xmlns:inkscape="http://www.inkscape.org/namespaces/inkscape"
   width="225"
   height="67"
   id="svg8242"
   version="1.1"
   inkscape:version="0.48.3.1 r9886"
   sodipodi:docname="logo.svg"
   inkscape:export-filename="/home/teltek/Escritorio/desenho/mobile/gmobile.png"
   inkscape:export-xdpi="45.265354"
   inkscape:export-ydpi="45.265354">
  <defs
     id="defs8244" />
  <sodipodi:namedview
     id="base"
     pagecolor="#ffffff"
     bordercolor="#666666"
     borderopacity="1.0"
     inkscape:pageopacity="0.94117647"
     inkscape:pageshadow="2"
     inkscape:zoom="3.151597"
     inkscape:cx="276.80215"
     inkscape:cy="4.4333781"
     inkscape:document-units="px"
     inkscape:current-layer="layer1"
     showgrid="false"
     inkscape:window-width="1920"
     inkscape:window-height="1056"
     inkscape:window-x="0"
     inkscape:window-y="24"
     inkscape:window-maximized="1"
     fit-margin-top="0"
     fit-margin-left="0"
     fit-margin-right="0"
     fit-margin-bottom="0"
     showguides="false"
     inkscape:guide-bbox="true"
     inkscape:snap-to-guides="false"
     inkscape:snap-bbox="true"
     inkscape:snap-global="true"
     inkscape:bbox-nodes="false"
     inkscape:bbox-paths="false"
     inkscape:snap-bbox-edge-midpoints="true"
     inkscape:snap-bbox-midpoints="false"
     inkscape:object-paths="true"
     inkscape:snap-nodes="true"
     inkscape:snap-page="true">
    <inkscape:grid
       type="xygrid"
       id="grid3056"
       empspacing="5"
       visible="true"
       enabled="true"
       snapvisiblegridlinesonly="true" />
    <sodipodi:guide
       position="0,-116.8039"
       orientation="0,373.84976"
       id="guide3058" />
    <sodipodi:guide
       position="373.84976,-116.8039"
       orientation="-187.87685,0"
       id="guide3060" />
    <sodipodi:guide
       position="-8.0812204,43.557822"
       orientation="0,-373.84976"
       id="guide3062" />
    <sodipodi:guide
       position="124.5013,48.861122"
       orientation="187.87685,0"
       id="guide3064" />
  </sodipodi:namedview>
  <metadata
     id="metadata8247">
    <rdf:RDF>
      <cc:Work
         rdf:about="">
        <dc:format>image/svg+xml</dc:format>
        <dc:type
           rdf:resource="http://purl.org/dc/dcmitype/StillImage" />
        <dc:title />
      </cc:Work>
    </rdf:RDF>
  </metadata>
  <g
     inkscape:label="Layer 1"
     inkscape:groupmode="layer"
     id="layer1"
     transform="translate(-99.95845,-530.15143)">
    <g
       id="g102-5-7-0"
       transform="matrix(0.76461743,0,0,-0.76461743,116.43672,561.66182)">
      <path
         d="m 0,0 -7.445,0 0,5.438 14.057,0 0,-19.152 c -2.792,-0.882 -8.179,-1.47 -12.147,-1.47 -10.824,0 -16.016,4.163 -16.016,18.074 0,13.96 5.828,17.585 16.947,17.585 3.085,0 7.641,-0.539 10.286,-1.275 L 4.359,13.568 c -1.812,0.637 -6.172,1.029 -8.473,1.029 -7.74,0 -10.531,-1.274 -10.531,-11.756 0,-10.482 2.791,-12.147 10.237,-12.147 1.616,0 3.38,0.244 4.408,0.49 L 0,0 z"
         style="fill:#2d2c2e;fill-opacity:1;fill-rule:nonzero;stroke:none"
         id="path104-5-1-5"
         inkscape:connector-curvature="0" />
    </g>
    <g
       id="g106-6-1-9"
       transform="matrix(0.76461743,0,0,-0.76461743,136.39736,550.83844)">
      <path
         d="m 0,0 c -1.714,-4.408 -3.527,-9.453 -5.29,-14.596 l 11.364,0 C 4.31,-9.551 2.645,-4.408 1.322,0 L 0,0 z m 7.935,-20.131 -14.939,0 c -0.98,-3.037 -1.862,-5.927 -2.645,-8.522 l -6.76,0 c 3.184,10.188 8.18,23.951 12.344,34.139 l 10.139,0 c 3.477,-10.971 8.473,-25.029 12.294,-34.139 l -7.152,0 c -0.979,2.449 -2.154,5.387 -3.281,8.522"
         style="fill:#2d2c2e;fill-opacity:1;fill-rule:nonzero;stroke:none"
         id="path108-16-8-8"
         inkscape:connector-curvature="0" />
    </g>
    <g
       id="g110-7-6-8"
       transform="matrix(0.76461743,0,0,-0.76461743,157.96799,546.64351)">
      <path
         d="m 0,0 0,-28.507 16.115,0 0,-5.633 -22.58,0 0,34.14 L 0,0 z"
         style="fill:#2d2c2e;fill-opacity:1;fill-rule:nonzero;stroke:none"
         id="path112-4-4-0"
         inkscape:connector-curvature="0" />
    </g>
    <path
       d="m 178.60257,572.7474 -4.94326,0 0,-26.10404 4.94326,0 0,26.10404 z"
       style="fill:#2d2c2e;fill-opacity:1;fill-rule:nonzero;stroke:none"
       id="path114-6-2-8"
       inkscape:connector-curvature="0" />
    <g
       id="g116-7-5-8"
       transform="matrix(0.76461743,0,0,-0.76461743,196.12935,546.00658)">
      <path
         d="M 0,0 C 3.135,0 7.151,-0.539 9.797,-1.274 L 8.376,-6.956 c -1.764,0.637 -4.947,1.078 -7.249,1.078 -7.445,0 -10.237,-1.273 -10.237,-11.756 0,-10.481 2.792,-12.097 10.237,-12.097 2.302,0 5.485,0.44 7.249,1.077 l 1.421,-5.78 C 7.151,-35.169 3.135,-35.658 0,-35.658 c -10.824,0 -16.017,4.163 -16.017,18.073 C -16.017,-3.625 -10.824,0 0,0"
         style="fill:#2d2c2e;fill-opacity:1;fill-rule:nonzero;stroke:none"
         id="path118-26-5-70"
         inkscape:connector-curvature="0" />
    </g>
    <g
       id="g120-9-5-1"
       transform="matrix(0.76461743,0,0,-0.76461743,216.27747,550.83844)">
      <path
         d="m 0,0 c -1.715,-4.408 -3.526,-9.453 -5.29,-14.596 l 11.363,0 C 4.311,-9.551 2.645,-4.408 1.322,0 L 0,0 z m 7.935,-20.131 -14.939,0 c -0.98,-3.037 -1.861,-5.927 -2.645,-8.522 l -6.759,0 c 3.183,10.188 8.179,23.951 12.343,34.139 l 10.138,0 c 3.478,-10.971 8.474,-25.029 12.295,-34.139 l -7.151,0 c -0.98,2.449 -2.155,5.387 -3.282,8.522"
         style="fill:#2d2c2e;fill-opacity:1;fill-rule:nonzero;stroke:none"
         id="path122-2-1-3"
         inkscape:connector-curvature="0" />
    </g>
    <g
       id="g124-0-5-1"
       transform="matrix(0.76461743,0,0,-0.76461743,249.45813,551.43728)">
      <path
         d="m 0,0 c -1.91,0.686 -5.584,1.225 -9.012,1.225 -5.437,0 -7.69,-1.127 -7.69,-4.457 0,-2.597 1.274,-3.772 7.493,-4.36 7.936,-0.833 11.463,-3.771 11.463,-10.237 0,-8.033 -4.899,-10.727 -14.744,-10.727 -3.771,0 -7.885,0.588 -10.629,1.519 l 1.421,5.583 c 2.155,-0.686 5.78,-1.224 9.111,-1.224 5.437,0 7.886,0.98 7.886,4.506 0,2.547 -1.225,4.163 -7.789,4.751 -7.543,0.734 -11.069,3.086 -11.069,9.404 0,8.034 4.996,11.12 14.547,11.12 3.723,0 7.739,-0.637 10.432,-1.519 L 0,0 z"
         style="fill:#2d2c2e;fill-opacity:1;fill-rule:nonzero;stroke:none"
         id="path126-1-6-0"
         inkscape:connector-curvature="0" />
    </g>
    <g
       id="g128-4-8-0"
       transform="matrix(0.76461743,0,0,-0.76461743,261.81595,572.74724)">
      <path
         d="m 0,0 0,28.556 -11.51,0 0,5.584 29.535,0 0,-5.584 -11.509,0 L 6.516,0 0,0 z"
         style="fill:#2d2c2e;fill-opacity:1;fill-rule:nonzero;stroke:none"
         id="path130-9-2-0"
         inkscape:connector-curvature="0" />
    </g>
    <g
       id="g132-7-6-5"
       transform="matrix(0.76461743,0,0,-0.76461743,297.95605,546.64351)">
      <path
         d="m 0,0 0,-5.584 -18.318,0 0,-7.886 13.078,0 0,-5.535 -13.078,0 0,-9.551 18.318,0 0,-5.584 -24.783,0 0,34.14 L 0,0 z"
         style="fill:#2d2c2e;fill-opacity:1;fill-rule:nonzero;stroke:none"
         id="path134-0-6-09"
         inkscape:connector-curvature="0" />
    </g>
    <g
       id="g136-3-6-8"
       transform="matrix(0.76461743,0,0,-0.76461743,307.16733,558.7026)">
      <path
         d="m 0,0 9.65,0 c 2.498,0 3.967,1.665 3.967,4.996 0,3.575 -1.42,5.289 -3.82,5.289 L 0,10.285 0,0 z m 23.268,-18.368 -7.985,0 C 9.943,-9.013 6.76,-5.339 4.557,-5.339 l -4.557,0 0,-13.029 -6.465,0 0,34.139 17.779,0 c 7.202,0 9.504,-4.457 9.504,-9.943 0,-4.897 -2.156,-9.11 -8.964,-9.355 2.351,-0.832 5.437,-4.849 11.414,-14.841"
         style="fill:#2d2c2e;fill-opacity:1;fill-rule:nonzero;stroke:none"
         id="path138-5-7-9"
         inkscape:connector-curvature="0" />
    </g>
    <g
       id="g140-4-9-4"
       transform="matrix(0.76461743,0,0,-0.76461743,184.66746,536.03974)">
      <path
         d="m -2.8789348,-0.78286822 c 0,-4.57399998 -3.71,-8.28499998 -8.2849992,-8.28499998 -4.576,0 -8.286,3.711 -8.286,8.28499998 0,4.57600002 3.71,8.28300002 8.286,8.28300002 4.5749992,0 8.2849992,-3.707 8.2849992,-8.28300002"
         style="fill:#e43232;fill-opacity:1;fill-rule:nonzero;stroke:none"
         id="path142-1-7-1"
         inkscape:connector-curvature="0" />
    </g>
    <text
       xml:space="preserve"
       style="font-size:40px;font-style:normal;font-weight:normal;line-height:125%;letter-spacing:0px;word-spacing:0px;fill:#000000;fill-opacity:1;stroke:none;font-family:Sans"
       x="186.42857"
       y="110.59309"
       id="text3034"
       sodipodi:linespacing="125%"
       transform="translate(99.95845,526.90918)"><tspan
         sodipodi:role="line"
         id="tspan3036"
         x="186.42857"
         y="110.59309" /></text>
    <flowRoot
       xml:space="preserve"
       id="flowRoot3033"
       style="font-size:40px;font-style:normal;font-variant:normal;font-weight:bold;font-stretch:normal;line-height:125%;letter-spacing:0px;word-spacing:0px;fill:#000000;fill-opacity:1;stroke:none;font-family:Etelka Light Pro;-inkscape-font-specification:Sans Bold"
       transform="translate(99.95845,526.90918)"><flowRegion
         id="flowRegion3035"><rect
           id="rect3037"
           width="48.229515"
           height="133.26576"
           x="713.92377"
           y="192.37666" /></flowRegion><flowPara
         id="flowPara3039">çMMob</flowPara></flowRoot>  </g>
</svg>
