<?xml version="1.0" encoding="UTF-8" standalone="no"?>
<!-- Created with Inkscape (http://www.inkscape.org/) -->

<svg
   xmlns:dc="http://purl.org/dc/elements/1.1/"
   xmlns:cc="http://creativecommons.org/ns#"
   xmlns:rdf="http://www.w3.org/1999/02/22-rdf-syntax-ns#"
   xmlns:svg="http://www.w3.org/2000/svg"
   xmlns="http://www.w3.org/2000/svg"
   xmlns:sodipodi="http://sodipodi.sourceforge.net/DTD/sodipodi-0.dtd"
   xmlns:inkscape="http://www.inkscape.org/namespaces/inkscape"
   version="1.1"
   width="225"
   height="45"
   id="svg2"
   xml:space="preserve"
   inkscape:version="0.48.3.1 r9886"
   sodipodi:docname="teltek.svg"><sodipodi:namedview
     pagecolor="#ffffff"
     bordercolor="#666666"
     borderopacity="1"
     objecttolerance="10"
     gridtolerance="10"
     guidetolerance="10"
     inkscape:pageopacity="0"
     inkscape:pageshadow="2"
     inkscape:window-width="1920"
     inkscape:window-height="1056"
     id="namedview62"
     showgrid="false"
     inkscape:zoom="5.5258962"
     inkscape:cx="126.32573"
     inkscape:cy="2.9361909"
     inkscape:window-x="0"
     inkscape:window-y="24"
     inkscape:window-maximized="1"
     inkscape:current-layer="svg2"
     inkscape:snap-page="true" /><metadata
     id="metadata8"><rdf:RDF><cc:Work
         rdf:about=""><dc:format>image/svg+xml</dc:format><dc:type
           rdf:resource="http://purl.org/dc/dcmitype/StillImage" /><dc:title /></cc:Work></rdf:RDF></metadata><defs
     id="defs6"><clipPath
       id="clipPath48"><path
         d="m 0,841.89 595.276,0 L 595.276,0 0,0 0,841.89 z"
         id="path50"
         inkscape:connector-curvature="0" /></clipPath></defs><g
     id="g3232"
     transform="matrix(0.53716274,0,0,0.53716274,-97.337041,-226.54678)"><g
       id="g3217"><g
         id="g12"
         transform="matrix(1.25,0,0,-1.25,240.17337,433.3745)"><path
           inkscape:connector-curvature="0"
           style="fill:#1a171b;fill-opacity:1;fill-rule:nonzero;stroke:none"
           id="path14"
           d="m 0,0 -18.87,0 0,-38.004 -9.302,0 0,38.004 -19.002,0 0,9.302 L 0,9.302 0,0 z" /></g><g
         id="g16"
         transform="matrix(1.25,0,0,-1.25,311.24513,480.88)"><path
           inkscape:connector-curvature="0"
           style="fill:#1a171b;fill-opacity:1;fill-rule:nonzero;stroke:none"
           id="path18"
           d="m 0,0 -47.174,0 0,47.306 47.174,0 0,-9.302 -37.872,0 0,-9.767 28.381,0 0,-9.235 -28.381,0 0,-9.767 L 0,9.235 0,0 z" /></g><g
         id="g20"
         transform="matrix(1.25,0,0,-1.25,382.31687,480.88)"><path
           inkscape:connector-curvature="0"
           style="fill:#1a171b;fill-opacity:1;fill-rule:nonzero;stroke:none"
           id="path22"
           d="m 0,0 -47.174,0 0,47.173 9.302,0 0,-37.871 L 0,9.302 0,0 z" /></g><g
         id="g24"
         transform="matrix(1.25,0,0,-1.25,433.4985,433.3745)"><path
           inkscape:connector-curvature="0"
           style="fill:#1a171b;fill-opacity:1;fill-rule:nonzero;stroke:none"
           id="path26"
           d="m 0,0 -18.87,0 0,-38.004 -9.302,0 0,38.004 -19.002,0 0,9.302 L 0,9.302 0,0 z" /></g><g
         id="g28"
         transform="matrix(1.25,0,0,-1.25,501.91775,480.88)"><path
           inkscape:connector-curvature="0"
           style="fill:#1a171b;fill-opacity:1;fill-rule:nonzero;stroke:none"
           id="path30"
           d="m 0,0 -47.174,0 0,47.306 47.174,0 0,-9.302 -37.872,0 0,-9.767 28.381,0 0,-9.235 -28.381,0 0,-9.767 L 0,9.235 0,0 z" /></g><g
         id="g32"
         transform="matrix(1.25,0,0,-1.25,572.9065,433.5405)"><path
           inkscape:connector-curvature="0"
           style="fill:#b6bc00;fill-opacity:1;fill-rule:nonzero;stroke:none"
           id="path34"
           d="m 0,0 -9.302,0 0,-9.567 -9.302,0 0,-9.568 9.302,0 0,-9.501 9.302,0 0,-9.236 -9.302,0 0,9.634 -9.302,0 0,9.369 -19.202,0 0,-19.003 -9.301,0 0,47.174 9.301,0 0,-18.869 19.202,0 0,9.501 9.559,0 0,9.368 L 0,9.302 0,0 z" /></g><path
         inkscape:connector-curvature="0"
         style="fill:#1a171b;fill-opacity:1;fill-rule:nonzero;stroke:none"
         id="path36"
         d="m 585.74125,422.3925 11.26375,0 0,11.26375 -11.26375,0 0,-11.26375 z" /></g><g
       id="g3201"><g
         id="g38"
         transform="matrix(1.25,0,0,-1.25,208.95512,505.5205)"><path
           inkscape:connector-curvature="0"
           style="fill:#1a171b;fill-opacity:1;fill-rule:nonzero;stroke:none"
           id="path40"
           d="m 0,0 -3.54,6.122 1.628,0 2.48,-4.425 2.364,4.425 1.42,0 L 0.985,0 0,0 z" /></g><path
         inkscape:connector-curvature="0"
         style="fill:#1a171b;fill-opacity:1;fill-rule:nonzero;stroke:none"
         id="path42"
         d="m 233.205,497.8675 1.78,0 0,7.6525 -1.78,0 0,-7.6525 z" /><path
         d="m 255.64325,505.5205 0,-7.6525 4.92375,0 c 1.40625,0 2.4875,0.32875 3.2425,0.985 0.75625,0.65625 1.13375,1.5875 1.13375,2.79375 0,0.715 -0.1475,1.3575 -0.44125,1.93 -0.29375,0.5725 -0.71,1.0225 -1.24625,1.35 -0.33375,0.2075 -0.7475,0.35875 -1.2425,0.4525 -0.495,0.095 -1.13,0.14125 -1.9025,0.14125 l -4.4675,0 z m 1.78,-1.4375 2.305,0 c 1.22625,0 2.095,-0.19125 2.6075,-0.57375 0.5125,-0.38125 0.76875,-1.0125 0.76875,-1.8925 0,-0.7825 -0.2125,-1.37625 -0.6375,-1.77875 -0.42625,-0.40375 -1.05375,-0.605 -1.885,-0.605 l -3.15875,0 0,4.85 z"
         id="path54"
         style="fill:#1a171b;fill-opacity:1;fill-rule:evenodd;stroke:none"
         inkscape:connector-curvature="0" /><path
         d="m 284.9365,505.5205 0,-7.6525 7.8325,0 0,1.305 -6.0525,0 0,1.70625 3.53,0 0,1.305 -3.53,0 0,1.89875 6.125,0 0,1.4375 -7.905,0 z"
         id="path58"
         style="fill:#1a171b;fill-opacity:1;fill-rule:evenodd;stroke:none"
         inkscape:connector-curvature="0" /><path
         inkscape:connector-curvature="0"
         style="fill:#1a171b;fill-opacity:1;fill-rule:evenodd;stroke:none"
         id="path60"
         d="m 314.48125,504.0825 5.87375,0 0,-4.85 -5.87375,0 0,4.85 z m -1.78,-4.4075 c 0,-0.69375 0.13125,-1.16875 0.39125,-1.42375 0.26,-0.25625 0.76125,-0.38375 1.505,-0.38375 l 5.635,0 c 0.745,0 1.25,0.1275 1.51125,0.38375 0.26125,0.255 0.39125,0.73 0.39125,1.42375 l 0,4.0375 c 0,0.7 -0.13,1.17625 -0.39125,1.42875 -0.26125,0.2525 -0.76625,0.37875 -1.51125,0.37875 l -5.635,0 c -0.74375,0 -1.245,-0.12625 -1.505,-0.37875 -0.26,-0.2525 -0.39125,-0.72875 -0.39125,-1.42875 l 0,-4.0375 z" /><path
         d="m 365.08062,505.5205 0,-7.6525 6.54125,0 c 0.61,0 1.05125,0.11625 1.325,0.35 0.27375,0.23375 0.41,0.61 0.41,1.13 l 0,1.80125 c 0,0.515 -0.13625,0.89 -0.41,1.12625 -0.27375,0.235 -0.715,0.35375 -1.325,0.35375 l -0.99875,0 3.53875,2.89125 -2.5575,0 -3.08625,-2.89125 -1.6875,0 0,2.89125 -1.75,0 z m 5.7525,-6.3325 -4.0025,0 0,2.13625 4.0025,0 c 0.31,0 0.52,-0.0462 0.6325,-0.135 0.11375,-0.09 0.17125,-0.24875 0.17125,-0.47625 l 0,-0.9225 c 0,-0.2225 -0.0575,-0.37875 -0.17125,-0.4675 -0.1125,-0.09 -0.3225,-0.135 -0.6325,-0.135"
         id="path64"
         style="fill:#1a171b;fill-opacity:1;fill-rule:evenodd;stroke:none"
         inkscape:connector-curvature="0" /><path
         d="m 393.706,505.5205 0,-7.6525 7.8325,0 0,1.305 -6.0525,0 0,1.70625 3.53,0 0,1.305 -3.53,0 0,1.89875 6.12625,0 0,1.4375 -7.90625,0 z"
         id="path68"
         style="fill:#1a171b;fill-opacity:1;fill-rule:evenodd;stroke:none"
         inkscape:connector-curvature="0" /><path
         d="m 428.26413,499.20275 -5.01375,0 0,1.64625 4.775,0 c 0.75,0 1.25625,0.1275 1.52,0.38375 0.26375,0.25625 0.39625,0.73125 0.39625,1.4275 l 0,1.0525 c 0,0.695 -0.1325,1.16875 -0.39625,1.425 -0.26375,0.255 -0.77,0.3825 -1.52,0.3825 l -4.73125,0 c -0.7475,0 -1.25375,-0.1275 -1.51625,-0.3825 -0.26375,-0.25625 -0.39625,-0.73 -0.39625,-1.425 l 0,-0.21 1.5725,-0.325 0,0.905 5.41375,0 0,-1.75125 -4.77625,0 c -0.74375,0 -1.24625,-0.1275 -1.50625,-0.3825 -0.26125,-0.255 -0.3925,-0.73 -0.3925,-1.425 l 0,-0.8475 c 0,-0.695 0.13125,-1.17 0.3925,-1.425 0.26,-0.25625 0.7625,-0.38375 1.50625,-0.38375 l 4.34625,0 c 0.72,0 1.21625,0.1225 1.49,0.36875 0.2725,0.24625 0.40875,0.6825 0.40875,1.30875 l 0,0.16 -1.5725,0.3725 0,-0.875 z"
         id="path72"
         style="fill:#1a171b;fill-opacity:1;fill-rule:evenodd;stroke:none"
         inkscape:connector-curvature="0" /><path
         d="m 450.38088,505.5205 0,-7.6525 7.8325,0 0,1.305 -6.0525,0 0,1.70625 3.53,0 0,1.305 -3.53,0 0,1.89875 6.12625,0 0,1.4375 -7.90625,0 z"
         id="path76"
         style="fill:#1a171b;fill-opacity:1;fill-rule:evenodd;stroke:none"
         inkscape:connector-curvature="0" /><path
         d="m 476.84087,505.5205 4.33375,-7.6525 1.7175,0 4.39125,7.6525 -2,0 -0.92,-1.675 -4.85625,0 -0.89125,1.675 -1.775,0 z m 3.4275,-3.055 3.355,0 -1.6525,-3.11375 -1.7025,3.11375 z"
         id="path80"
         style="fill:#1a171b;fill-opacity:1;fill-rule:evenodd;stroke:none"
         inkscape:connector-curvature="0" /><path
         d="m 506.4795,505.5205 0,-7.6525 6.5425,0 c 0.61,0 1.05125,0.11625 1.325,0.35 0.27375,0.23375 0.41,0.61 0.41,1.13 l 0,1.80125 c 0,0.515 -0.13625,0.89 -0.41,1.12625 -0.27375,0.235 -0.715,0.35375 -1.325,0.35375 l -0.99875,0 3.53875,2.89125 -2.5575,0 -3.08625,-2.89125 -1.68875,0 0,2.89125 -1.75,0 z m 5.75375,-6.3325 -4.00375,0 0,2.13625 4.00375,0 c 0.30875,0 0.52,-0.0462 0.6325,-0.135 0.11375,-0.09 0.17,-0.24875 0.17,-0.47625 l 0,-0.9225 c 0,-0.2225 -0.0562,-0.37875 -0.17,-0.4675 -0.1125,-0.09 -0.32375,-0.135 -0.6325,-0.135"
         id="path84"
         style="fill:#1a171b;fill-opacity:1;fill-rule:evenodd;stroke:none"
         inkscape:connector-curvature="0" /><path
         d="m 541.52837,499.23262 -4.80625,0 0,4.85 4.80625,0 0,-1.64625 1.78,0.36875 0,0.9075 c 0,0.69875 -0.13125,1.175 -0.39375,1.42875 -0.26375,0.2525 -0.76375,0.37875 -1.5025,0.37875 l -4.57375,0 c -0.7425,0 -1.245,-0.12625 -1.505,-0.37875 -0.26,-0.25375 -0.39125,-0.73 -0.39125,-1.42875 l 0,-4.0375 c 0,-0.69375 0.13125,-1.16875 0.39125,-1.42375 0.26,-0.25625 0.7625,-0.38375 1.505,-0.38375 l 4.57375,0 c 0.73875,0 1.23875,0.1275 1.5025,0.38375 0.2625,0.255 0.39375,0.73 0.39375,1.42375 l 0,0.7275 -1.78,0.28375 0,-1.45375 z"
         id="path88"
         style="fill:#1a171b;fill-opacity:1;fill-rule:evenodd;stroke:none"
         inkscape:connector-curvature="0" /><path
         d="m 563.73175,505.5205 0,-7.6525 1.78,0 0,2.96625 5.5625,0 0,-2.96625 1.795,0 0,7.6525 -1.795,0 0,-3.2925 -5.5625,0 0,3.2925 -1.78,0 z"
         id="path92"
         style="fill:#1a171b;fill-opacity:1;fill-rule:evenodd;stroke:none"
         inkscape:connector-curvature="0" /></g></g></svg>